<mxfile host="app.diagrams.net" modified="2022-12-23T08:32:08.269Z" agent="5.0 (X11; Linux x86_64) AppleWebKit/537.36 (KHTML, like Gecko) Chrome/103.0.0.0 Safari/537.36" version="20.7.4" etag="YYvabyIT8koUzGNiuX-d" type="github">
  <diagram id="hqKt5VQdspyV8XHayDPg" name="Page-1">
    <mxGraphModel dx="851" dy="504" grid="1" gridSize="10" guides="1" tooltips="1" connect="1" arrows="1" fold="1" page="1" pageScale="1" pageWidth="827" pageHeight="1169" math="0" shadow="0">
      <root>
        <mxCell id="0" />
        <mxCell id="1" parent="0" />
        <mxCell id="XL77TOoLsMP2DL_AMxw8-45" value="" style="rounded=1;whiteSpace=wrap;html=1;fontSize=35;fillColor=#dae8fc;strokeColor=#6c8ebf;" vertex="1" parent="1">
          <mxGeometry x="40" y="390" width="780" height="110" as="geometry" />
        </mxCell>
        <mxCell id="XL77TOoLsMP2DL_AMxw8-28" style="edgeStyle=orthogonalEdgeStyle;rounded=0;orthogonalLoop=1;jettySize=auto;html=1;exitX=1;exitY=0.25;exitDx=0;exitDy=0;entryX=0;entryY=0.25;entryDx=0;entryDy=0;fontSize=35;" edge="1" parent="1" source="XL77TOoLsMP2DL_AMxw8-26" target="XL77TOoLsMP2DL_AMxw8-27">
          <mxGeometry relative="1" as="geometry" />
        </mxCell>
        <mxCell id="XL77TOoLsMP2DL_AMxw8-29" style="edgeStyle=orthogonalEdgeStyle;rounded=0;orthogonalLoop=1;jettySize=auto;html=1;exitX=1;exitY=0.75;exitDx=0;exitDy=0;entryX=0;entryY=0.75;entryDx=0;entryDy=0;fontSize=35;" edge="1" parent="1" source="XL77TOoLsMP2DL_AMxw8-26" target="XL77TOoLsMP2DL_AMxw8-27">
          <mxGeometry relative="1" as="geometry" />
        </mxCell>
        <mxCell id="XL77TOoLsMP2DL_AMxw8-26" value="&lt;font style=&quot;font-size: 20px;&quot;&gt;&lt;b&gt;lstm_cell 1&lt;/b&gt;&lt;/font&gt;" style="rounded=1;whiteSpace=wrap;html=1;fontSize=35;" vertex="1" parent="1">
          <mxGeometry x="80" y="290" width="120" height="60" as="geometry" />
        </mxCell>
        <mxCell id="XL77TOoLsMP2DL_AMxw8-34" style="edgeStyle=orthogonalEdgeStyle;rounded=0;orthogonalLoop=1;jettySize=auto;html=1;exitX=1;exitY=0.75;exitDx=0;exitDy=0;entryX=0;entryY=0.75;entryDx=0;entryDy=0;fontSize=35;" edge="1" parent="1" source="XL77TOoLsMP2DL_AMxw8-27" target="XL77TOoLsMP2DL_AMxw8-32">
          <mxGeometry relative="1" as="geometry" />
        </mxCell>
        <mxCell id="XL77TOoLsMP2DL_AMxw8-35" style="edgeStyle=orthogonalEdgeStyle;rounded=0;orthogonalLoop=1;jettySize=auto;html=1;exitX=1;exitY=0.25;exitDx=0;exitDy=0;entryX=0;entryY=0.25;entryDx=0;entryDy=0;fontSize=35;" edge="1" parent="1" source="XL77TOoLsMP2DL_AMxw8-27" target="XL77TOoLsMP2DL_AMxw8-32">
          <mxGeometry relative="1" as="geometry" />
        </mxCell>
        <mxCell id="XL77TOoLsMP2DL_AMxw8-27" value="&lt;b style=&quot;border-color: var(--border-color); color: rgb(0, 0, 0); font-family: Helvetica; font-size: 20px; font-style: normal; font-variant-ligatures: normal; font-variant-caps: normal; letter-spacing: normal; orphans: 2; text-align: center; text-indent: 0px; text-transform: none; widows: 2; word-spacing: 0px; -webkit-text-stroke-width: 0px; background-color: rgb(251, 251, 251); text-decoration-thickness: initial; text-decoration-style: initial; text-decoration-color: initial;&quot;&gt;lstm_cell 2&lt;/b&gt;" style="rounded=1;whiteSpace=wrap;html=1;fontSize=35;" vertex="1" parent="1">
          <mxGeometry x="280" y="290" width="120" height="60" as="geometry" />
        </mxCell>
        <mxCell id="XL77TOoLsMP2DL_AMxw8-30" style="edgeStyle=orthogonalEdgeStyle;rounded=0;orthogonalLoop=1;jettySize=auto;html=1;exitX=1;exitY=0.25;exitDx=0;exitDy=0;entryX=0;entryY=0.25;entryDx=0;entryDy=0;fontSize=35;" edge="1" parent="1" source="XL77TOoLsMP2DL_AMxw8-32" target="XL77TOoLsMP2DL_AMxw8-33">
          <mxGeometry relative="1" as="geometry" />
        </mxCell>
        <mxCell id="XL77TOoLsMP2DL_AMxw8-31" style="edgeStyle=orthogonalEdgeStyle;rounded=0;orthogonalLoop=1;jettySize=auto;html=1;exitX=1;exitY=0.75;exitDx=0;exitDy=0;entryX=0;entryY=0.75;entryDx=0;entryDy=0;fontSize=35;" edge="1" parent="1" source="XL77TOoLsMP2DL_AMxw8-32" target="XL77TOoLsMP2DL_AMxw8-33">
          <mxGeometry relative="1" as="geometry" />
        </mxCell>
        <mxCell id="XL77TOoLsMP2DL_AMxw8-32" value="&lt;b style=&quot;border-color: var(--border-color); color: rgb(0, 0, 0); font-family: Helvetica; font-size: 20px; font-style: normal; font-variant-ligatures: normal; font-variant-caps: normal; letter-spacing: normal; orphans: 2; text-align: center; text-indent: 0px; text-transform: none; widows: 2; word-spacing: 0px; -webkit-text-stroke-width: 0px; background-color: rgb(251, 251, 251); text-decoration-thickness: initial; text-decoration-style: initial; text-decoration-color: initial;&quot;&gt;lstm_cell 2&lt;/b&gt;" style="rounded=1;whiteSpace=wrap;html=1;fontSize=35;" vertex="1" parent="1">
          <mxGeometry x="480" y="290" width="120" height="60" as="geometry" />
        </mxCell>
        <mxCell id="XL77TOoLsMP2DL_AMxw8-33" value="&lt;b style=&quot;border-color: var(--border-color); color: rgb(0, 0, 0); font-family: Helvetica; font-size: 20px; font-style: normal; font-variant-ligatures: normal; font-variant-caps: normal; letter-spacing: normal; orphans: 2; text-align: center; text-indent: 0px; text-transform: none; widows: 2; word-spacing: 0px; -webkit-text-stroke-width: 0px; background-color: rgb(251, 251, 251); text-decoration-thickness: initial; text-decoration-style: initial; text-decoration-color: initial;&quot;&gt;lstm_cell 2&lt;/b&gt;" style="rounded=1;whiteSpace=wrap;html=1;fontSize=35;" vertex="1" parent="1">
          <mxGeometry x="680" y="290" width="120" height="60" as="geometry" />
        </mxCell>
        <mxCell id="XL77TOoLsMP2DL_AMxw8-38" style="edgeStyle=orthogonalEdgeStyle;rounded=0;orthogonalLoop=1;jettySize=auto;html=1;fontSize=35;" edge="1" parent="1" source="XL77TOoLsMP2DL_AMxw8-36" target="XL77TOoLsMP2DL_AMxw8-26">
          <mxGeometry relative="1" as="geometry" />
        </mxCell>
        <mxCell id="XL77TOoLsMP2DL_AMxw8-36" value="&lt;span style=&quot;font-size: 23px;&quot;&gt;x(t&lt;sub&gt;i&lt;/sub&gt;&lt;/span&gt;&lt;span style=&quot;font-size: 23px;&quot;&gt;-k)&amp;nbsp;&lt;/span&gt;" style="shape=cube;whiteSpace=wrap;html=1;boundedLbl=1;backgroundOutline=1;darkOpacity=0.05;darkOpacity2=0.1;fontSize=35;size=10;fillColor=#0050ef;strokeColor=#001DBC;fontColor=#ffffff;" vertex="1" parent="1">
          <mxGeometry x="95" y="420" width="90" height="50" as="geometry" />
        </mxCell>
        <mxCell id="XL77TOoLsMP2DL_AMxw8-37" style="edgeStyle=orthogonalEdgeStyle;rounded=0;orthogonalLoop=1;jettySize=auto;html=1;exitX=0.5;exitY=1;exitDx=0;exitDy=0;fontSize=35;" edge="1" parent="1" source="XL77TOoLsMP2DL_AMxw8-26" target="XL77TOoLsMP2DL_AMxw8-26">
          <mxGeometry relative="1" as="geometry" />
        </mxCell>
        <mxCell id="XL77TOoLsMP2DL_AMxw8-42" style="edgeStyle=orthogonalEdgeStyle;rounded=0;orthogonalLoop=1;jettySize=auto;html=1;fontSize=35;" edge="1" parent="1" target="XL77TOoLsMP2DL_AMxw8-27">
          <mxGeometry relative="1" as="geometry">
            <mxPoint x="340" y="420" as="sourcePoint" />
          </mxGeometry>
        </mxCell>
        <mxCell id="XL77TOoLsMP2DL_AMxw8-43" style="edgeStyle=orthogonalEdgeStyle;rounded=0;orthogonalLoop=1;jettySize=auto;html=1;entryX=0.5;entryY=1;entryDx=0;entryDy=0;fontSize=35;" edge="1" parent="1" target="XL77TOoLsMP2DL_AMxw8-32">
          <mxGeometry relative="1" as="geometry">
            <mxPoint x="539.9999999999998" y="420" as="sourcePoint" />
          </mxGeometry>
        </mxCell>
        <mxCell id="XL77TOoLsMP2DL_AMxw8-44" style="edgeStyle=orthogonalEdgeStyle;rounded=0;orthogonalLoop=1;jettySize=auto;html=1;entryX=0.5;entryY=1;entryDx=0;entryDy=0;fontSize=35;" edge="1" parent="1" target="XL77TOoLsMP2DL_AMxw8-33">
          <mxGeometry relative="1" as="geometry">
            <mxPoint x="739.9999999999998" y="420" as="sourcePoint" />
          </mxGeometry>
        </mxCell>
        <mxCell id="XL77TOoLsMP2DL_AMxw8-47" value="&lt;font style=&quot;font-size: 19px;&quot;&gt;x(t&lt;sub style=&quot;&quot;&gt;i&lt;/sub&gt;-k+1)&amp;nbsp;&lt;/font&gt;" style="shape=cube;whiteSpace=wrap;html=1;boundedLbl=1;backgroundOutline=1;darkOpacity=0.05;darkOpacity2=0.1;fontSize=35;size=10;fillColor=#0050ef;strokeColor=#001DBC;fontColor=#ffffff;" vertex="1" parent="1">
          <mxGeometry x="295" y="420" width="90" height="50" as="geometry" />
        </mxCell>
        <mxCell id="XL77TOoLsMP2DL_AMxw8-48" value="&lt;font style=&quot;font-size: 19px;&quot;&gt;x(t&lt;sub style=&quot;&quot;&gt;i&lt;/sub&gt;-k+2)&amp;nbsp;&lt;/font&gt;" style="shape=cube;whiteSpace=wrap;html=1;boundedLbl=1;backgroundOutline=1;darkOpacity=0.05;darkOpacity2=0.1;fontSize=35;size=10;fillColor=#0050ef;strokeColor=#001DBC;fontColor=#ffffff;" vertex="1" parent="1">
          <mxGeometry x="495" y="420" width="90" height="50" as="geometry" />
        </mxCell>
        <mxCell id="XL77TOoLsMP2DL_AMxw8-49" value="&lt;font style=&quot;font-size: 19px;&quot;&gt;x(t&lt;sub style=&quot;&quot;&gt;i&lt;/sub&gt;)&amp;nbsp;&lt;/font&gt;" style="shape=cube;whiteSpace=wrap;html=1;boundedLbl=1;backgroundOutline=1;darkOpacity=0.05;darkOpacity2=0.1;fontSize=35;size=10;fillColor=#0050ef;strokeColor=#001DBC;fontColor=#ffffff;" vertex="1" parent="1">
          <mxGeometry x="695" y="420" width="90" height="50" as="geometry" />
        </mxCell>
      </root>
    </mxGraphModel>
  </diagram>
</mxfile>
